<svg xmlns="http://www.w3.org/2000/svg" version="1.1" xmlns:xlink="http://www.w3.org/1999/xlink" xmlns:svgjs="http://svgjs.dev/svgjs" width="128" height="128" viewBox="0 0 128 128"><g transform="matrix(0.8046875,0,0,0.8046875,11.647896450000005,15.174784971694692)"><svg viewBox="0 0 60 57" data-background-color="#ffffff" preserveAspectRatio="xMidYMid meet" height="121" width="128" xmlns="http://www.w3.org/2000/svg" xmlns:xlink="http://www.w3.org/1999/xlink"><g id="tight-bounds" transform="matrix(1,0,0,1,0.49637099999999634,0.08290691218130064)"><svg viewBox="0 0 59.007258 56.8341861756374" height="56.8341861756374" width="59.007258"><g><svg viewBox="0 0 59.007258 56.8341861756374" height="56.8341861756374" width="59.007258"><g><svg viewBox="0 0 59.007258 56.8341861756374" height="56.8341861756374" width="59.007258"><g><svg viewBox="0 0 59.007258 56.8341861756374" height="56.8341861756374" width="59.007258"><g id="textblocktransform"><svg viewBox="0 0 59.007258 56.8341861756374" height="56.8341861756374" width="59.007258" id="textblock"><g><svg viewBox="0 0 59.007258 56.8341861756374" height="56.8341861756374" width="59.007258"><g><svg viewBox="0 0 59.007258 56.8341861756374" height="56.8341861756374" width="59.007258"><g><svg xmlns="http://www.w3.org/2000/svg" xmlns:xlink="http://www.w3.org/1999/xlink" version="1.1" x="0" y="0" viewBox="0.7 2 70.6 68" enable-background="new 0 0 72 72" xml:space="preserve" height="56.8341861756374" width="59.007258" class="icon-icon-0" data-fill-palette-color="accent" id="icon-0"><g fill="#4a596d" data-fill-palette-color="accent"><g fill="#4a596d" data-fill-palette-color="accent"><g fill="#4a596d" data-fill-palette-color="accent"><g fill="#4a596d" data-fill-palette-color="accent"><path d="M49.7 41.2C49 41.2 48.3 40.9 47.9 40.4 47.1 39.4 47.2 37.9 48.1 37L53.8 31.3C54.3 30.8 54.3 30 53.8 29.5L48.1 23.8C47.2 22.9 47 21.5 47.8 20.5 48.7 19.4 50.4 19.3 51.4 20.3L59.9 28.8C60.4 29.3 60.6 29.9 60.6 30.5S60.3 31.8 59.9 32.2L51.4 40.7C51 41 50.3 41.2 49.7 41.2" fill="#000000" data-fill-palette-color="accent"></path></g><g fill="#4a596d" data-fill-palette-color="accent"><path d="M22.3 41.2C21.7 41.2 21.1 41 20.6 40.5L12.1 32C11.6 31.5 11.4 30.9 11.4 30.3S11.7 29 12.1 28.6L20.5 20.2C21.4 19.3 22.9 19.1 23.8 19.9 24.9 20.8 25 22.5 24 23.5L18.2 29.3C17.7 29.8 17.7 30.6 18.2 31.1L23.9 36.8C24.8 37.7 25 39.2 24.1 40.2 23.6 40.9 22.9 41.2 22.3 41.2" fill="#000000" data-fill-palette-color="accent"></path></g></g><g fill="#4a596d" data-fill-palette-color="accent"><path d="M30.9 47C30.6 47 30.4 47 30.1 46.9 28.8 46.5 28.2 45.1 28.6 43.8L38.8 15.3C39.2 14 40.6 13.4 41.9 13.8S43.8 15.6 43.4 16.9L33.2 45.4C32.8 46.4 31.9 47 30.9 47" fill="#000000" data-fill-palette-color="accent"></path></g></g><path d="M63.7 2H8.3C4.1 2 0.7 5.4 0.7 9.6V49.4C0.7 53.6 4.1 57 8.3 57H30.3C30.7 57 31 57.3 31 57.7V61.3C31 61.6 30.8 61.9 30.4 62 25.9 62.7 22.7 64.1 22.7 65.8 22.7 68.1 28.7 70 36 70S49.3 68.1 49.3 65.8C49.3 64.1 46.1 62.6 41.6 62 41.3 62 41 61.7 41 61.3V57.7C41 57.3 41.3 57 41.7 57H63.7C67.9 57 71.3 53.6 71.3 49.4V9.6C71.3 5.4 67.9 2 63.7 2M66.4 49.4C66.4 50.9 65.2 52.1 63.7 52.1H8.3C6.8 52.1 5.6 50.9 5.6 49.4V9.6C5.6 8.1 6.8 6.9 8.3 6.9H63.7C65.2 6.9 66.4 8.1 66.4 9.6z" fill="#000000" data-fill-palette-color="accent"></path></g></svg></g></svg></g></svg></g></svg></g></svg></g></svg></g></svg></g><defs></defs></svg><rect width="59.007258" height="56.8341861756374" fill="none" stroke="none" visibility="hidden"></rect></g></svg></g></svg>