<svg xmlns="http://www.w3.org/2000/svg" version="1.1" xmlns:xlink="http://www.w3.org/1999/xlink" xmlns:svgjs="http://svgjs.dev/svgjs" width="2000" height="606" viewBox="0 0 2000 606"><g transform="matrix(1,0,0,1,-1.2121212121212466,-1.402042501308756)"><svg viewBox="0 0 396 120" data-background-color="#ffffff" preserveAspectRatio="xMidYMid meet" height="606" width="2000" xmlns="http://www.w3.org/2000/svg" xmlns:xlink="http://www.w3.org/1999/xlink"><g id="tight-bounds" transform="matrix(1,0,0,1,0.2400000000000091,0.27763217847697774)"><svg viewBox="0 0 395.52 119.44473564304607" height="119.44473564304607" width="395.52"><g><svg viewBox="0 0 395.52 119.44473564304607" height="119.44473564304607" width="395.52"><g><svg viewBox="0 0 649.8313004641931 196.24526672866705" height="119.44473564304607" width="395.52"><g><rect width="8.27124837303703" height="196.24526672866705" x="224.38756943922667" y="0" fill="#ffffff" opacity="1" stroke-width="0" stroke="transparent" fill-opacity="1" class="rect-yte-0" data-fill-palette-color="primary" rx="1%" id="yte-0" data-palette-color="#ffffff"></rect></g><g transform="matrix(1,0,0,1,254.3113004641931,0.48817230529517985)"><svg viewBox="0 0 395.52 195.2689221180767" height="195.2689221180767" width="395.52"><g id="textblocktransform"><svg viewBox="0 0 395.52 195.2689221180767" height="195.2689221180767" width="395.52" id="textblock"><g><svg viewBox="0 0 395.52 195.2689221180767" height="195.2689221180767" width="395.52"><g transform="matrix(1,0,0,1,0,0)"><svg width="395.52" viewBox="1.4900000000000002 -36.01 203.55999999999997 96.02000000000001" height="195.2689221180767" data-palette-color="#ffffff"><svg></svg><svg></svg><g class="wordmark-text-0" data-fill-palette-color="primary" id="text-0"><path d="M14.99-35.01h5.01l13.5 35.01h-5.01l-3.1-8.06h-15.8l-3.1 8.06h-5zM17.5-28.49l-6 15.43h11.96zM53.71-21.19h-9.91v21.19h-4.79v-26h4.79v4.59c0.033-0.633 0.18-1.233 0.44-1.8 0.26-0.56 0.607-1.047 1.04-1.46 0.427-0.413 0.927-0.74 1.5-0.98 0.567-0.233 1.177-0.35 1.83-0.35v0h5.1c0.667 0 1.29 0.127 1.87 0.38 0.58 0.253 1.087 0.593 1.52 1.02 0.44 0.433 0.787 0.943 1.04 1.53 0.253 0.587 0.38 1.213 0.38 1.88v0 4.39h-4.81zM87.5-21.19v21.19h-4.81v-21.19h-13.4v21.19h-4.79v-26h4.79v4.59c0.033-0.633 0.18-1.233 0.44-1.8 0.26-0.56 0.603-1.047 1.03-1.46 0.433-0.413 0.937-0.74 1.51-0.98 0.567-0.233 1.177-0.35 1.83-0.35v0h8.59c0.667 0 1.293 0.127 1.88 0.38 0.587 0.253 1.097 0.593 1.53 1.02 0.427 0.433 0.767 0.943 1.02 1.53 0.253 0.587 0.38 1.213 0.38 1.88zM117.99-21.19v16.38c0 0.667-0.127 1.293-0.38 1.88-0.247 0.587-0.587 1.097-1.02 1.53-0.433 0.427-0.937 0.767-1.51 1.02-0.58 0.253-1.203 0.38-1.87 0.38v0h-12.92c-0.647 0-1.263-0.127-1.85-0.38-0.587-0.253-1.097-0.593-1.53-1.02-0.433-0.433-0.773-0.943-1.02-1.53-0.253-0.587-0.38-1.213-0.38-1.88v0-16.38c0-0.667 0.127-1.293 0.38-1.88 0.247-0.587 0.587-1.097 1.02-1.53 0.433-0.427 0.943-0.767 1.53-1.02 0.587-0.253 1.203-0.38 1.85-0.38v0h12.92c0.667 0 1.29 0.127 1.87 0.38 0.573 0.253 1.077 0.593 1.51 1.02 0.433 0.433 0.773 0.943 1.02 1.53 0.253 0.587 0.38 1.213 0.38 1.88zM113.21-21.19h-12.92v16.38h12.92zM126-36.01h4.79v36.01h-4.79zM138.79-4.81v-16.38c0-0.667 0.127-1.293 0.38-1.88 0.253-0.587 0.597-1.097 1.03-1.53 0.427-0.427 0.933-0.767 1.52-1.02 0.587-0.253 1.207-0.38 1.86-0.38v0h13.4v-10.01h4.81v36.01h-4.81v-4.39c-0.047 0.6-0.21 1.167-0.49 1.7-0.273 0.54-0.627 1.01-1.06 1.41-0.427 0.4-0.917 0.713-1.47 0.94-0.553 0.227-1.14 0.34-1.76 0.34v0h-8.62c-0.653 0-1.273-0.127-1.86-0.38-0.587-0.253-1.093-0.593-1.52-1.02-0.433-0.433-0.777-0.943-1.03-1.53-0.253-0.587-0.38-1.213-0.38-1.88zM143.58-21.19v16.38h13.4v-16.38z" fill="#ffffff" fill-rule="nonzero" stroke="none" stroke-width="1" stroke-linecap="butt" stroke-linejoin="miter" stroke-miterlimit="10" stroke-dasharray="" stroke-dashoffset="0" font-family="none" font-weight="none" font-size="none" text-anchor="none" style="mix-blend-mode: normal" data-fill-palette-color="primary" opacity="1"></path><path transform="translate(0,49.51)" d="M32.15-26.49v3.98c0 4.88-2.083 7.663-6.25 8.35v0l6.6 14.16h-5.55l-6.49-13.99h-10.96v13.99h-5.01v-35.01h19.17c5.66 0 8.49 2.84 8.49 8.52zM9.5-30v11.01h13.89c1.333 0 2.293-0.293 2.88-0.88 0.587-0.587 0.88-1.547 0.88-2.88v0-3.5c0-1.333-0.293-2.293-0.88-2.88-0.587-0.58-1.547-0.87-2.88-0.87v0zM62.5-21.19v16.38c0 0.667-0.127 1.293-0.38 1.88-0.253 0.587-0.593 1.097-1.02 1.53-0.433 0.427-0.94 0.767-1.52 1.02-0.573 0.253-1.197 0.38-1.87 0.38v0h-12.91c-0.653 0-1.273-0.127-1.86-0.38-0.58-0.253-1.087-0.593-1.52-1.02-0.433-0.433-0.777-0.943-1.03-1.53-0.253-0.587-0.38-1.213-0.38-1.88v0-16.38c0-0.667 0.127-1.293 0.38-1.88 0.253-0.587 0.597-1.097 1.03-1.53 0.433-0.427 0.94-0.767 1.52-1.02 0.587-0.253 1.207-0.38 1.86-0.38v0h12.91c0.673 0 1.297 0.127 1.87 0.38 0.58 0.253 1.087 0.593 1.52 1.02 0.427 0.433 0.767 0.943 1.02 1.53 0.253 0.587 0.38 1.213 0.38 1.88zM57.71-21.19h-12.91v16.38h12.91zM70.51-5.81v-15.38c0-0.667 0.127-1.293 0.38-1.88 0.247-0.587 0.587-1.097 1.02-1.53 0.433-0.427 0.943-0.767 1.53-1.02 0.587-0.253 1.203-0.38 1.85-0.38v0h8.62c0.633 0 1.237 0.117 1.81 0.35 0.567 0.24 1.067 0.567 1.5 0.98 0.433 0.413 0.783 0.9 1.05 1.46 0.267 0.567 0.41 1.167 0.43 1.8v0-4.59h4.81v31.69c0 0.667-0.127 1.293-0.38 1.88-0.253 0.587-0.597 1.093-1.03 1.52-0.427 0.433-0.933 0.777-1.52 1.03-0.587 0.253-1.213 0.38-1.88 0.38v0h-15.19v-4.81h15.19v-6.69h-13.41c-0.647 0-1.263-0.127-1.85-0.38-0.587-0.253-1.097-0.593-1.53-1.02-0.433-0.433-0.773-0.943-1.02-1.53-0.253-0.587-0.38-1.213-0.38-1.88zM75.29-5.81h13.41v-15.38h-13.41zM101.51-4.81v-6.54c0-0.667 0.127-1.29 0.38-1.87 0.253-0.58 0.597-1.09 1.03-1.53 0.427-0.44 0.933-0.783 1.52-1.03 0.587-0.253 1.207-0.38 1.86-0.38v0h12.4v-5.03h-15.7v-4.81h15.7c0.667 0 1.293 0.127 1.88 0.38 0.587 0.253 1.097 0.593 1.53 1.02 0.427 0.433 0.767 0.943 1.02 1.53 0.253 0.587 0.38 1.213 0.38 1.88v0 21.19h-4.81v-4.39c-0.047 0.6-0.21 1.167-0.49 1.7-0.273 0.54-0.627 1.01-1.06 1.41-0.433 0.4-0.927 0.713-1.48 0.94-0.553 0.227-1.137 0.34-1.75 0.34v0h-7.62c-0.653 0-1.273-0.127-1.86-0.38-0.587-0.253-1.093-0.593-1.52-1.02-0.433-0.433-0.777-0.943-1.03-1.53-0.253-0.587-0.38-1.213-0.38-1.88zM106.3-11.35v6.54h12.4v-6.54zM131.52-36.01h4.78v36.01h-4.78zM143.8-4.81h16.21v-6.03h-11.4c-0.667 0-1.293-0.127-1.88-0.38-0.587-0.253-1.097-0.593-1.53-1.02-0.427-0.433-0.767-0.943-1.02-1.53-0.253-0.587-0.38-1.213-0.38-1.88v0-5.54c0-0.667 0.127-1.293 0.38-1.88 0.253-0.587 0.593-1.097 1.02-1.53 0.433-0.427 0.943-0.767 1.53-1.02 0.587-0.253 1.213-0.38 1.88-0.38v0h15.21v4.81h-15.21v5.54h11.4c0.667 0 1.29 0.127 1.87 0.38 0.573 0.253 1.08 0.593 1.52 1.02 0.44 0.433 0.787 0.943 1.04 1.53 0.253 0.587 0.38 1.213 0.38 1.88v0 6.03c0 0.667-0.127 1.293-0.38 1.88-0.253 0.587-0.6 1.097-1.04 1.53-0.44 0.427-0.947 0.767-1.52 1.02-0.58 0.253-1.203 0.38-1.87 0.38v0h-16.21zM196.26 0h-6.76l-12.4-11.11v11.11h-4.79v-36.01h4.79v20.26l11.4-10.25h6.76l-13.96 12.55zM200-26h4.81v26h-4.81zM199.76-31.01v-5h5.29v5z" fill="#ffffff" fill-rule="nonzero" stroke="none" stroke-width="1" stroke-linecap="butt" stroke-linejoin="miter" stroke-miterlimit="10" stroke-dasharray="" stroke-dashoffset="0" font-family="none" font-weight="none" font-size="none" text-anchor="none" style="mix-blend-mode: normal" data-fill-palette-color="primary" opacity="1"></path></g></svg></g></svg></g></svg></g></svg></g><g transform="matrix(1,0,0,1,0,0.48817230529517985)"><svg viewBox="0 0 202.73508678729726 195.2689221180767" height="195.2689221180767" width="202.73508678729726"><g><svg xmlns="http://www.w3.org/2000/svg" xmlns:xlink="http://www.w3.org/1999/xlink" version="1.1" x="0" y="0" viewBox="0.7 2 70.6 68" enable-background="new 0 0 72 72" xml:space="preserve" height="195.2689221180767" width="202.73508678729726" class="icon-icon-0" data-fill-palette-color="accent" id="icon-0"><g fill="#ffffff" data-fill-palette-color="accent"><g fill="#ffffff" data-fill-palette-color="accent"><g fill="#ffffff" data-fill-palette-color="accent"><g fill="#ffffff" data-fill-palette-color="accent"><path d="M49.7 41.2C49 41.2 48.3 40.9 47.9 40.4 47.1 39.4 47.2 37.9 48.1 37L53.8 31.3C54.3 30.8 54.3 30 53.8 29.5L48.1 23.8C47.2 22.9 47 21.5 47.8 20.5 48.7 19.4 50.4 19.3 51.4 20.3L59.9 28.8C60.4 29.3 60.6 29.9 60.6 30.5S60.3 31.8 59.9 32.2L51.4 40.7C51 41 50.3 41.2 49.7 41.2" fill="#ffffff" data-fill-palette-color="accent"></path></g><g fill="#ffffff" data-fill-palette-color="accent"><path d="M22.3 41.2C21.7 41.2 21.1 41 20.6 40.5L12.1 32C11.6 31.5 11.4 30.9 11.4 30.3S11.7 29 12.1 28.6L20.5 20.2C21.4 19.3 22.9 19.1 23.8 19.9 24.9 20.8 25 22.5 24 23.5L18.2 29.3C17.7 29.8 17.7 30.6 18.2 31.1L23.9 36.8C24.8 37.7 25 39.2 24.1 40.2 23.6 40.9 22.9 41.2 22.3 41.2" fill="#ffffff" data-fill-palette-color="accent"></path></g></g><g fill="#ffffff" data-fill-palette-color="accent"><path d="M30.9 47C30.6 47 30.4 47 30.1 46.9 28.8 46.5 28.2 45.1 28.6 43.8L38.8 15.3C39.2 14 40.6 13.4 41.9 13.8S43.8 15.6 43.4 16.9L33.2 45.4C32.8 46.4 31.9 47 30.9 47" fill="#ffffff" data-fill-palette-color="accent"></path></g></g><path d="M63.7 2H8.3C4.1 2 0.7 5.4 0.7 9.6V49.4C0.7 53.6 4.1 57 8.3 57H30.3C30.7 57 31 57.3 31 57.7V61.3C31 61.6 30.8 61.9 30.4 62 25.9 62.7 22.7 64.1 22.7 65.8 22.7 68.1 28.7 70 36 70S49.3 68.1 49.3 65.8C49.3 64.1 46.1 62.6 41.6 62 41.3 62 41 61.7 41 61.3V57.7C41 57.3 41.3 57 41.7 57H63.7C67.9 57 71.3 53.6 71.3 49.4V9.6C71.3 5.4 67.9 2 63.7 2M66.4 49.4C66.4 50.9 65.2 52.1 63.7 52.1H8.3C6.8 52.1 5.6 50.9 5.6 49.4V9.6C5.6 8.1 6.8 6.9 8.3 6.9H63.7C65.2 6.9 66.4 8.1 66.4 9.6z" fill="#ffffff" data-fill-palette-color="accent"></path></g></svg></g></svg></g></svg></g></svg></g><defs></defs></svg><rect width="395.52" height="119.44473564304607" fill="none" stroke="none" visibility="hidden"></rect></g></svg></g></svg>